<svg xmlns="http://www.w3.org/2000/svg" viewBox="0 0 900 200" width="900" height="200" xmlns:c2pa="http://c2pa.org/manifest"><metadata><c2pa:manifest>AAAWgmp1bWIAAAAeanVtZGMycGEAEQAQgAAAqgA4m3EDYzJwYQAAABZcanVtYgAAAEdqdW1kYzJtYQARABCAAACqADibcQN1cm46YzJwYTpmMWYwNTFiNy0zYTEwLTQ5OGItODEzNi1hMTRmM2ViMmI3YTkAAAADl2p1bWIAAAApanVtZGMyYXMAEQAQgAAAqgA4m3EDYzJwYS5hc3NlcnRpb25zAAAAALxqdW1iAAAARGp1bWRjYm9yABEAEIAAAKoAOJtxE2MycGEuaW5ncmVkaWVudC52MwAAAAAYYzJzaOb/LVqghr4PCL6ZBatYgWEAAABwY2JvcqNpZGM6Zm9ybWF0bWltYWdlL3N2Zyt4bWxqaW5zdGFuY2VJRHgseG1wOmlpZDo1YTc3NTExNy1hZThhLTRmNDAtODQ0YS03ZTEyMmQ2ZWJmY2VscmVsYXRpb25zaGlwaHBhcmVudE9mAAAB4mp1bWIAAABBanVtZGNib3IAEQAQgAAAqgA4m3ETYzJwYS5hY3Rpb25zLnYyAAAAABhjMnNoSAvBAZoiCJVVjYj53Swe3gAAAZljYm9yomdhY3Rpb25zgqJmYWN0aW9ua2MycGEub3BlbmVkanBhcmFtZXRlcnOha2luZ3JlZGllbnRzgaJjdXJseC1zZWxmI2p1bWJmPWMycGEuYXNzZXJ0aW9ucy9jMnBhLmluZ3JlZGllbnQudjNkaGFzaFggtffiNcWsVMKZLrH9Dquk1dPLvz//Us2/X57rIqV1tBCkZmFjdGlvbngdY29tLmFudGhyb3BpYy5jbGF1ZGUucHJvdmlkZWRqcGFyYW1ldGVyc6F4H2NvbS5hbnRocm9waWMub3JpZ2luLWNvbmZpZGVuY2VndW5rbm93bmtkZXNjcmlwdGlvbnhmQ2xhdWRlIHByb3ZpZGVkIHRoaXMgZmlsZSBhdCB0aGUgcmVxdWVzdCBvZiBhIHVzZXIgYW5kIG1heSBoYXZlIGNyZWF0ZWQgb3IgbW9kaWZpZWQgdGhlIGZpbGUgY29udGVudHMubXNvZnR3YXJlQWdlbnShZG5hbWVmQ2xhdWRlcmFsbEFjdGlvbnNJbmNsdWRlZPUAAADIanVtYgAAAEBqdW1kY2JvcgARABCAAACqADibcRNjMnBhLmhhc2guZGF0YQAAAAAYYzJzaMCOCqnrsajOfNHNIpGxr3EAAACAY2JvcqVjYWxnZnNoYTI1NmNwYWRNAAAAAAAAAAAAAAAAAGRoYXNoWCBwyxYf6ilbEiS2j+Q1d40zCFnlvn0wnjBztDu931kZ5mRuYW1lbmp1bWJmIG1hbmlmZXN0amV4Y2x1c2lvbnOBomVzdGFydBiWZmxlbmd0aBkeBAAAAj5qdW1iAAAAJ2p1bWRjMmNsABEAEIAAAKoAOJtxA2MycGEuY2xhaW0udjIAAAACD2Nib3KlY2FsZ2ZzaGEyNTZpc2lnbmF0dXJleE1zZWxmI2p1bWJmPS9jMnBhL3VybjpjMnBhOmYxZjA1MWI3LTNhMTAtNDk4Yi04MTM2LWExNGYzZWIyYjdhOS9jMnBhLnNpZ25hdHVyZWppbnN0YW5jZUlEeCx4bXA6aWlkOmJhOTM2ZjViLTc1YjUtNDVmYy04OTkwLWQ0ZWI1NDMyZDMzNnJjcmVhdGVkX2Fzc2VydGlvbnODomN1cmx4LXNlbGYjanVtYmY9YzJwYS5hc3NlcnRpb25zL2MycGEuaW5ncmVkaWVudC52M2RoYXNoWCC19+I1xaxUwpkusf0Oq6TV08u/P/9Szb9fnusipXW0EKJjdXJseCpzZWxmI2p1bWJmPWMycGEuYXNzZXJ0aW9ucy9jMnBhLmFjdGlvbnMudjJkaGFzaFggdyWhIta4WD33Zoq29uEho6V6aonkGd4/OPnEohgCNOCiY3VybHgpc2VsZiNqdW1iZj1jMnBhLmFzc2VydGlvbnMvYzJwYS5oYXNoLmRhdGFkaGFzaFgg+IGrxNfMEEFviHiKI78471kkkcc71/DCrp3JH1da9W90Y2xhaW1fZ2VuZXJhdG9yX2luZm+jZG5hbWVvQW50aHJvcGljIEZpbGVzZ3ZlcnNpb25lMS4wLjBrc3BlY1ZlcnNpb25lMi40LjAAABA4anVtYgAAAChqdW1kYzJjcwARABCAAACqADibcQNjMnBhLnNpZ25hdHVyZQAAABAIY2JvctKEWQISogEmGCFZAgowggIGMIIBjaADAgECAhRA5aAK7sI50L64g/oGQgU9Z1UTADAKBggqhkjOPQQDAzBJMRcwFQYDVQQKEw5BbnRocm9waWMsIFBCQzEuMCwGA1UEAxMlQW50aHJvcGljIENvbnRlbnQgQ3JlZGVudGlhbHMgUm9vdCBDQTAeFw0yNjA4MDcxODQzNTZaFw0yODA4MDYxOTQzNTZaMEQxFzAVBgNVBAoTDkFudGhyb3BpYywgUEJDMSkwJwYDVQQDEyBBbnRocm9waWMgQ2xhdWRlIENvbnRlbnQgU2lnbmluZzBZMBMGByqGSM49AgEGCCqGSM49AwEHA0IABJh6CmvLUBgFFNU0vUKlOVtE6djd17L5SuwX0LemFisBM3dkd/3cyjxFA3Qo5S46fX0/ihY0VZ7mfb9KF703t5OjWDBWMA4GA1UdDwEB/wQEAwIHgDAVBgNVHSUEDjAMBgorBgEEAYPoXgIBMAwGA1UdEwEB/wQCMAAwHwYDVR0jBBgwFoAUzlHiBIFOZFsj+OPEz5o+nMHXXMIwCgYIKoZIzj0EAwMDZwAwZAIwMXMdFJ4BetLLVY7ORuE9noqbbAZOZn/aArXyTwFAZfKrPzxF2vPoJNf1+UCdg1XGAjBwX1zd9WGqYkqmL5SFqw1QySjr1zJfpJM9+1rdDwSPLMOPOjKuiXjoU/pUUeG9RwmhY3BhZFkNngAAAAAAAAAAAAAAAAAAAAAAAAAAAAAAAAAAAAAAAAAAAAAAAAAAAAAAAAAAAAAAAAAAAAAAAAAAAAAAAAAAAAAAAAAAAAAAAAAAAAAAAAAAAAAAAAAAAAAAAAAAAAAAAAAAAAAAAAAAAAAAAAAAAAAAAAAAAAAAAAAAAAAAAAAAAAAAAAAAAAAAAAAAAAAAAAAAAAAAAAAAAAAAAAAAAAAAAAAAAAAAAAAAAAAAAAAAAAAAAAAAAAAAAAAAAAAAAAAAAAAAAAAAAAAAAAAAAAAAAAAAAAAAAAAAAAAAAAAAAAAAAAAAAAAAAAAAAAAAAAAAAAAAAAAAAAAAAAAAAAAAAAAAAAAAAAAAAAAAAAAAAAAAAAAAAAAAAAAAAAAAAAAAAAAAAAAAAAAAAAAAAAAAAAAAAAAAAAAAAAAAAAAAAAAAAAAAAAAAAAAAAAAAAAAAAAAAAAAAAAAAAAAAAAAAAAAAAAAAAAAAAAAAAAAAAAAAAAAAAAAAAAAAAAAAAAAAAAAAAAAAAAAAAAAAAAAAAAAAAAAAAAAAAAAAAAAAAAAAAAAAAAAAAAAAAAAAAAAAAAAAAAAAAAAAAAAAAAAAAAAAAAAAAAAAAAAAAAAAAAAAAAAAAAAAAAAAAAAAAAAAAAAAAAAAAAAAAAAAAAAAAAAAAAAAAAAAAAAAAAAAAAAAAAAAAAAAAAAAAAAAAAAAAAAAAAAAAAAAAAAAAAAAAAAAAAAAAAAAAAAAAAAAAAAAAAAAAAAAAAAAAAAAAAAAAAAAAAAAAAAAAAAAAAAAAAAAAAAAAAAAAAAAAAAAAAAAAAAAAAAAAAAAAAAAAAAAAAAAAAAAAAAAAAAAAAAAAAAAAAAAAAAAAAAAAAAAAAAAAAAAAAAAAAAAAAAAAAAAAAAAAAAAAAAAAAAAAAAAAAAAAAAAAAAAAAAAAAAAAAAAAAAAAAAAAAAAAAAAAAAAAAAAAAAAAAAAAAAAAAAAAAAAAAAAAAAAAAAAAAAAAAAAAAAAAAAAAAAAAAAAAAAAAAAAAAAAAAAAAAAAAAAAAAAAAAAAAAAAAAAAAAAAAAAAAAAAAAAAAAAAAAAAAAAAAAAAAAAAAAAAAAAAAAAAAAAAAAAAAAAAAAAAAAAAAAAAAAAAAAAAAAAAAAAAAAAAAAAAAAAAAAAAAAAAAAAAAAAAAAAAAAAAAAAAAAAAAAAAAAAAAAAAAAAAAAAAAAAAAAAAAAAAAAAAAAAAAAAAAAAAAAAAAAAAAAAAAAAAAAAAAAAAAAAAAAAAAAAAAAAAAAAAAAAAAAAAAAAAAAAAAAAAAAAAAAAAAAAAAAAAAAAAAAAAAAAAAAAAAAAAAAAAAAAAAAAAAAAAAAAAAAAAAAAAAAAAAAAAAAAAAAAAAAAAAAAAAAAAAAAAAAAAAAAAAAAAAAAAAAAAAAAAAAAAAAAAAAAAAAAAAAAAAAAAAAAAAAAAAAAAAAAAAAAAAAAAAAAAAAAAAAAAAAAAAAAAAAAAAAAAAAAAAAAAAAAAAAAAAAAAAAAAAAAAAAAAAAAAAAAAAAAAAAAAAAAAAAAAAAAAAAAAAAAAAAAAAAAAAAAAAAAAAAAAAAAAAAAAAAAAAAAAAAAAAAAAAAAAAAAAAAAAAAAAAAAAAAAAAAAAAAAAAAAAAAAAAAAAAAAAAAAAAAAAAAAAAAAAAAAAAAAAAAAAAAAAAAAAAAAAAAAAAAAAAAAAAAAAAAAAAAAAAAAAAAAAAAAAAAAAAAAAAAAAAAAAAAAAAAAAAAAAAAAAAAAAAAAAAAAAAAAAAAAAAAAAAAAAAAAAAAAAAAAAAAAAAAAAAAAAAAAAAAAAAAAAAAAAAAAAAAAAAAAAAAAAAAAAAAAAAAAAAAAAAAAAAAAAAAAAAAAAAAAAAAAAAAAAAAAAAAAAAAAAAAAAAAAAAAAAAAAAAAAAAAAAAAAAAAAAAAAAAAAAAAAAAAAAAAAAAAAAAAAAAAAAAAAAAAAAAAAAAAAAAAAAAAAAAAAAAAAAAAAAAAAAAAAAAAAAAAAAAAAAAAAAAAAAAAAAAAAAAAAAAAAAAAAAAAAAAAAAAAAAAAAAAAAAAAAAAAAAAAAAAAAAAAAAAAAAAAAAAAAAAAAAAAAAAAAAAAAAAAAAAAAAAAAAAAAAAAAAAAAAAAAAAAAAAAAAAAAAAAAAAAAAAAAAAAAAAAAAAAAAAAAAAAAAAAAAAAAAAAAAAAAAAAAAAAAAAAAAAAAAAAAAAAAAAAAAAAAAAAAAAAAAAAAAAAAAAAAAAAAAAAAAAAAAAAAAAAAAAAAAAAAAAAAAAAAAAAAAAAAAAAAAAAAAAAAAAAAAAAAAAAAAAAAAAAAAAAAAAAAAAAAAAAAAAAAAAAAAAAAAAAAAAAAAAAAAAAAAAAAAAAAAAAAAAAAAAAAAAAAAAAAAAAAAAAAAAAAAAAAAAAAAAAAAAAAAAAAAAAAAAAAAAAAAAAAAAAAAAAAAAAAAAAAAAAAAAAAAAAAAAAAAAAAAAAAAAAAAAAAAAAAAAAAAAAAAAAAAAAAAAAAAAAAAAAAAAAAAAAAAAAAAAAAAAAAAAAAAAAAAAAAAAAAAAAAAAAAAAAAAAAAAAAAAAAAAAAAAAAAAAAAAAAAAAAAAAAAAAAAAAAAAAAAAAAAAAAAAAAAAAAAAAAAAAAAAAAAAAAAAAAAAAAAAAAAAAAAAAAAAAAAAAAAAAAAAAAAAAAAAAAAAAAAAAAAAAAAAAAAAAAAAAAAAAAAAAAAAAAAAAAAAAAAAAAAAAAAAAAAAAAAAAAAAAAAAAAAAAAAAAAAAAAAAAAAAAAAAAAAAAAAAAAAAAAAAAAAAAAAAAAAAAAAAAAAAAAAAAAAAAAAAAAAAAAAAAAAAAAAAAAAAAAAAAAAAAAAAAAAAAAAAAAAAAAAAAAAAAAAAAAAAAAAAAAAAAAAAAAAAAAAAAAAAAAAAAAAAAAAAAAAAAAAAAAAAAAAAAAAAAAAAAAAAAAAAAAAAAAAAAAAAAAAAAAAAAAAAAAAAAAAAAAAAAAAAAAAAAAAAAAAAAAAAAAAAAAAAAAAAAAAAAAAAAAAAAAAAAAAAAAAAAAAAAAAAAAAAAAAAAAAAAAAAAAAAAAAAAAAAAAAAAAAAAAAAAAAAAAAAAAAAAAAAAAAAAAAAAAAAAAAAAAAAAAAAAAAAAAAAAAAAAAAAAAAAAAAAAAAAAAAAAAAAAAAAAAAAAAAAAAAAAAAAAAAAAAAAAAAAAAAAAAAAAAAAAAAAAAAAAAAAAAAAAAAAAAAAAAAAAAAAAAAAAAAAAAAAAAAAAAAAAAAAAAAAAAAAAAAAAAAAAAAAAAAAAAAAAAAAAAAAAAAAAAAAAAAAAAAAAAAAAAAAAAAAAAAAAAAAAAAAAAAAAAAAAAAAAAAAAAAAAAAAAAAAAAAAAAAAAAAAAAAAAAAAAAAAAAAAAAAAAAAAAAAAAAAAAAAAAAAAAAAAAAAAAAAAAAAAAAAAAAAAAAAAAAAAAAAAAAAAAAAAAAAAAAAAAAAAAAAAAAAAAAAAAAAAAAAAAAAAAAAAAAAAAAAAAAAAAAAAAAAAAAAAAAAAAAAAAAAAAAAAAAAAAAAAAAAAAAAAAAAAAAAAAAAAAAAAAAAAAAAAAAAAAAAAAAAAAAAAAAAAAAAAAAAAAAAAAAAAAAAAAAAAAAAAAAAAAAAAAAAAAAAAAAAAAAAAAAAAAAAAAAAAAAAAAAAAAAAAAAAAAAAAAAAAAAAAAAAAAAAAAAAAAAAAAAAAAAAAAAAAAAAAAAAAAAAAAAAAAAAAAAAAAAAAAAAAAAAAAAAAAAAAAAAAAAAAAAAAAAAAAAAAAAAAAAAAAAAAAAAAAAAAAAAAAAAAAAAAAAAAAAAAAAAAAAAAAAAAAAAAAAAAAAAAAAAAAAAAAAAAAAAAAAAAAAAAAAAAAAAAAAAAAAAAAAAAAAAAAAAAAAAAAAAAAAAAAAAAAAAAAAAAAAAAAAAAAAAAAAAAAAAAAAAAAAAAAAAAAAAAAAAAAAAAAAAAAAAAAAAAAAAAAAAAAAAAAAAAAAAAAAAAAAAAAAAAAAAAAAAAAAAAAAAAAAAAAAAAAAAAAAAAAAAAAAAAAAAAAAAAAAAAAAAAAAAAAAAAAAAAAAAAAAAAAAAAAAAAAAAAAAAAAAAAAAAAAAAAAAAAAAAAAAAAAAAAAAAAAAAAAAAAAAAAAAAAAAAAAAAAAAAAAAAAAAAAAAAAAAAAAAAAAAAAAAAAAAAAAAAAAAAAAAAAAAAAAAAAAAAAAAAAAAAAAAAAAAAAAAAAAAAAAAAAAAAAAAAAAAAAAAAAAAAAAAAAAAAAAAAAAAAAAAAAAAAAAAAAAAAAAAAAAAAAAAAAAAAAAAAAAAAAAAAAAAAAAAAAAAAAAAAAAAAAAAAAAAAAAAAAAAAAAAAAAAAAAAAAAAAAAAAAAAAAAAAAAAAAAAAAAAAAAAAAAAAAAAAAAAAAAAAAAAAAAAAAAAAAAAAAAAAAAAAAAAAAAAAAAAAAAAAAAAAAAAAAAAAAAAAAAAAAAAAAAAAAAAAAAAAAAAAAAAAAAAAAAAAAAAAAAAAAAAAAAAAAAAAAAAAAAAAAAAAAAAAAAAAAAAAAAAAAAAAAAAAAAAAAAAAAAAAAAAAAAAAAAAAAAAAAAAAAAAAAAPZYQESZ5w4Y1O1TaLAua5Y9SzDVg7Q0Fbvkh03+21fxkBjgzLB57Tlh/aR6Wh2vg9ESNehhwYj6zr6AF6XElVa9Q2M=</c2pa:manifest></metadata>
<defs><filter id="glow" x="-20%" y="-50%" width="140%" height="200%"><feGaussianBlur stdDeviation="3" result="b"/><feMerge><feMergeNode in="b"/><feMergeNode in="SourceGraphic"/></feMerge></filter>
<pattern id="scan" width="4" height="4" patternUnits="userSpaceOnUse"><rect width="4" height="1" fill="#000" opacity=".22"/></pattern></defs>
<rect width="900" height="200" rx="14" fill="#0d1321"/>
<text x="450" y="66" text-anchor="middle" font-family="'Courier New', Courier, monospace" font-weight="700" font-size="40" letter-spacing="8" fill="#f5c518" filter="url(#glow)">GG, WELL PLAYED</text>
<text x="450" y="100" text-anchor="middle" font-family="'Courier New', Courier, monospace" font-weight="700" font-size="16" letter-spacing="3" fill="#36f1cd">INSERT COIN TO CONNECT<animate attributeName="opacity" values="1;1;0;0" keyTimes="0;.55;.55;1" dur="1.1s" repeatCount="indefinite"/></text>
<rect x="18.0" y="170" width="17" height="17" fill="#ff3ea5"/><rect x="18.0" y="170" width="17" height="3" fill="#fff" opacity=".35"/><rect x="18.0" y="184" width="17" height="3" fill="#000" opacity=".25"/>
<rect x="18.0" y="152" width="17" height="17" fill="#ff3ea5"/><rect x="18.0" y="152" width="17" height="3" fill="#fff" opacity=".35"/><rect x="18.0" y="166" width="17" height="3" fill="#000" opacity=".25"/>
<rect x="36.0" y="170" width="17" height="17" fill="#ff8c42"/><rect x="36.0" y="170" width="17" height="3" fill="#fff" opacity=".35"/><rect x="36.0" y="184" width="17" height="3" fill="#000" opacity=".25"/>
<rect x="36.0" y="152" width="17" height="17" fill="#ff8c42"/><rect x="36.0" y="152" width="17" height="3" fill="#fff" opacity=".35"/><rect x="36.0" y="166" width="17" height="3" fill="#000" opacity=".25"/><text x="44.5" y="164.96" font-size="11.16" text-anchor="middle" fill="#0d1321" opacity=".55" font-family="'Courier New', Courier, monospace">♠</text>
<rect x="36.0" y="134" width="17" height="17" fill="#d62839"/><rect x="36.0" y="134" width="17" height="3" fill="#fff" opacity=".35"/><rect x="36.0" y="148" width="17" height="3" fill="#000" opacity=".25"/>
<rect x="54.0" y="170" width="17" height="17" fill="#ff8c42"/><rect x="54.0" y="170" width="17" height="3" fill="#fff" opacity=".35"/><rect x="54.0" y="184" width="17" height="3" fill="#000" opacity=".25"/><text x="62.5" y="182.96" font-size="11.16" text-anchor="middle" fill="#0d1321" opacity=".55" font-family="'Courier New', Courier, monospace">♣</text>
<rect x="54.0" y="152" width="17" height="17" fill="#ff8c42"/><rect x="54.0" y="152" width="17" height="3" fill="#fff" opacity=".35"/><rect x="54.0" y="166" width="17" height="3" fill="#000" opacity=".25"/>
<rect x="72.0" y="170" width="17" height="17" fill="#7b61ff"/><rect x="72.0" y="170" width="17" height="3" fill="#fff" opacity=".35"/><rect x="72.0" y="184" width="17" height="3" fill="#000" opacity=".25"/>
<rect x="180.0" y="170" width="17" height="17" fill="#d62839"/><rect x="180.0" y="170" width="17" height="3" fill="#fff" opacity=".35"/><rect x="180.0" y="184" width="17" height="3" fill="#000" opacity=".25"/><text x="188.5" y="182.96" font-size="11.16" text-anchor="middle" fill="#0d1321" opacity=".55" font-family="'Courier New', Courier, monospace">♥</text>
<rect x="198.0" y="170" width="17" height="17" fill="#d62839"/><rect x="198.0" y="170" width="17" height="3" fill="#fff" opacity=".35"/><rect x="198.0" y="184" width="17" height="3" fill="#000" opacity=".25"/>
<rect x="198.0" y="152" width="17" height="17" fill="#7b61ff"/><rect x="198.0" y="152" width="17" height="3" fill="#fff" opacity=".35"/><rect x="198.0" y="166" width="17" height="3" fill="#000" opacity=".25"/>
<rect x="216.0" y="170" width="17" height="17" fill="#4cc9f0"/><rect x="216.0" y="170" width="17" height="3" fill="#fff" opacity=".35"/><rect x="216.0" y="184" width="17" height="3" fill="#000" opacity=".25"/>
<rect x="216.0" y="152" width="17" height="17" fill="#ff3ea5"/><rect x="216.0" y="152" width="17" height="3" fill="#fff" opacity=".35"/><rect x="216.0" y="166" width="17" height="3" fill="#000" opacity=".25"/>
<rect x="234.0" y="170" width="17" height="17" fill="#ff8c42"/><rect x="234.0" y="170" width="17" height="3" fill="#fff" opacity=".35"/><rect x="234.0" y="184" width="17" height="3" fill="#000" opacity=".25"/><text x="242.5" y="182.96" font-size="11.16" text-anchor="middle" fill="#0d1321" opacity=".55" font-family="'Courier New', Courier, monospace">♠</text>
<rect x="234.0" y="152" width="17" height="17" fill="#d62839"/><rect x="234.0" y="152" width="17" height="3" fill="#fff" opacity=".35"/><rect x="234.0" y="166" width="17" height="3" fill="#000" opacity=".25"/>
<rect x="234.0" y="134" width="17" height="17" fill="#7b61ff"/><rect x="234.0" y="134" width="17" height="3" fill="#fff" opacity=".35"/><rect x="234.0" y="148" width="17" height="3" fill="#000" opacity=".25"/>
<rect x="252.0" y="170" width="17" height="17" fill="#7b61ff"/><rect x="252.0" y="170" width="17" height="3" fill="#fff" opacity=".35"/><rect x="252.0" y="184" width="17" height="3" fill="#000" opacity=".25"/>
<rect x="252.0" y="152" width="17" height="17" fill="#7b61ff"/><rect x="252.0" y="152" width="17" height="3" fill="#fff" opacity=".35"/><rect x="252.0" y="166" width="17" height="3" fill="#000" opacity=".25"/>
<rect x="270.0" y="170" width="17" height="17" fill="#d62839"/><rect x="270.0" y="170" width="17" height="3" fill="#fff" opacity=".35"/><rect x="270.0" y="184" width="17" height="3" fill="#000" opacity=".25"/>
<rect x="306.0" y="170" width="17" height="17" fill="#ff3ea5"/><rect x="306.0" y="170" width="17" height="3" fill="#fff" opacity=".35"/><rect x="306.0" y="184" width="17" height="3" fill="#000" opacity=".25"/>
<rect x="324.0" y="170" width="17" height="17" fill="#36f1cd"/><rect x="324.0" y="170" width="17" height="3" fill="#fff" opacity=".35"/><rect x="324.0" y="184" width="17" height="3" fill="#000" opacity=".25"/><text x="332.5" y="182.96" font-size="11.16" text-anchor="middle" fill="#0d1321" opacity=".55" font-family="'Courier New', Courier, monospace">♣</text>
<rect x="324.0" y="152" width="17" height="17" fill="#ff3ea5"/><rect x="324.0" y="152" width="17" height="3" fill="#fff" opacity=".35"/><rect x="324.0" y="166" width="17" height="3" fill="#000" opacity=".25"/><text x="332.5" y="164.96" font-size="11.16" text-anchor="middle" fill="#0d1321" opacity=".55" font-family="'Courier New', Courier, monospace">♣</text>
<rect x="342.0" y="170" width="17" height="17" fill="#d62839"/><rect x="342.0" y="170" width="17" height="3" fill="#fff" opacity=".35"/><rect x="342.0" y="184" width="17" height="3" fill="#000" opacity=".25"/>
<rect x="342.0" y="152" width="17" height="17" fill="#f5c518"/><rect x="342.0" y="152" width="17" height="3" fill="#fff" opacity=".35"/><rect x="342.0" y="166" width="17" height="3" fill="#000" opacity=".25"/>
<rect x="342.0" y="134" width="17" height="17" fill="#d62839"/><rect x="342.0" y="134" width="17" height="3" fill="#fff" opacity=".35"/><rect x="342.0" y="148" width="17" height="3" fill="#000" opacity=".25"/>
<rect x="360.0" y="170" width="17" height="17" fill="#f5c518"/><rect x="360.0" y="170" width="17" height="3" fill="#fff" opacity=".35"/><rect x="360.0" y="184" width="17" height="3" fill="#000" opacity=".25"/>
<rect x="360.0" y="152" width="17" height="17" fill="#7b61ff"/><rect x="360.0" y="152" width="17" height="3" fill="#fff" opacity=".35"/><rect x="360.0" y="166" width="17" height="3" fill="#000" opacity=".25"/>
<rect x="378.0" y="170" width="17" height="17" fill="#f5c518"/><rect x="378.0" y="170" width="17" height="3" fill="#fff" opacity=".35"/><rect x="378.0" y="184" width="17" height="3" fill="#000" opacity=".25"/>
<rect x="378.0" y="152" width="17" height="17" fill="#36f1cd"/><rect x="378.0" y="152" width="17" height="3" fill="#fff" opacity=".35"/><rect x="378.0" y="166" width="17" height="3" fill="#000" opacity=".25"/>
<rect x="396.0" y="170" width="17" height="17" fill="#ff8c42"/><rect x="396.0" y="170" width="17" height="3" fill="#fff" opacity=".35"/><rect x="396.0" y="184" width="17" height="3" fill="#000" opacity=".25"/>
<rect x="414.0" y="170" width="17" height="17" fill="#ff3ea5"/><rect x="414.0" y="170" width="17" height="3" fill="#fff" opacity=".35"/><rect x="414.0" y="184" width="17" height="3" fill="#000" opacity=".25"/>
<rect x="414.0" y="152" width="17" height="17" fill="#f5c518"/><rect x="414.0" y="152" width="17" height="3" fill="#fff" opacity=".35"/><rect x="414.0" y="166" width="17" height="3" fill="#000" opacity=".25"/>
<rect x="432.0" y="170" width="17" height="17" fill="#ff8c42"/><rect x="432.0" y="170" width="17" height="3" fill="#fff" opacity=".35"/><rect x="432.0" y="184" width="17" height="3" fill="#000" opacity=".25"/>
<rect x="432.0" y="152" width="17" height="17" fill="#4cc9f0"/><rect x="432.0" y="152" width="17" height="3" fill="#fff" opacity=".35"/><rect x="432.0" y="166" width="17" height="3" fill="#000" opacity=".25"/>
<rect x="432.0" y="134" width="17" height="17" fill="#4cc9f0"/><rect x="432.0" y="134" width="17" height="3" fill="#fff" opacity=".35"/><rect x="432.0" y="148" width="17" height="3" fill="#000" opacity=".25"/>
<rect x="450.0" y="170" width="17" height="17" fill="#ff8c42"/><rect x="450.0" y="170" width="17" height="3" fill="#fff" opacity=".35"/><rect x="450.0" y="184" width="17" height="3" fill="#000" opacity=".25"/><text x="458.5" y="182.96" font-size="11.16" text-anchor="middle" fill="#0d1321" opacity=".55" font-family="'Courier New', Courier, monospace">♠</text>
<rect x="450.0" y="152" width="17" height="17" fill="#36f1cd"/><rect x="450.0" y="152" width="17" height="3" fill="#fff" opacity=".35"/><rect x="450.0" y="166" width="17" height="3" fill="#000" opacity=".25"/>
<rect x="468.0" y="170" width="17" height="17" fill="#4cc9f0"/><rect x="468.0" y="170" width="17" height="3" fill="#fff" opacity=".35"/><rect x="468.0" y="184" width="17" height="3" fill="#000" opacity=".25"/>
<rect x="486.0" y="170" width="17" height="17" fill="#36f1cd"/><rect x="486.0" y="170" width="17" height="3" fill="#fff" opacity=".35"/><rect x="486.0" y="184" width="17" height="3" fill="#000" opacity=".25"/>
<rect x="486.0" y="152" width="17" height="17" fill="#36f1cd"/><rect x="486.0" y="152" width="17" height="3" fill="#fff" opacity=".35"/><rect x="486.0" y="166" width="17" height="3" fill="#000" opacity=".25"/>
<rect x="504.0" y="170" width="17" height="17" fill="#ff3ea5"/><rect x="504.0" y="170" width="17" height="3" fill="#fff" opacity=".35"/><rect x="504.0" y="184" width="17" height="3" fill="#000" opacity=".25"/><text x="512.5" y="182.96" font-size="11.16" text-anchor="middle" fill="#0d1321" opacity=".55" font-family="'Courier New', Courier, monospace">♣</text>
<rect x="504.0" y="152" width="17" height="17" fill="#d62839"/><rect x="504.0" y="152" width="17" height="3" fill="#fff" opacity=".35"/><rect x="504.0" y="166" width="17" height="3" fill="#000" opacity=".25"/>
<rect x="522.0" y="170" width="17" height="17" fill="#36f1cd"/><rect x="522.0" y="170" width="17" height="3" fill="#fff" opacity=".35"/><rect x="522.0" y="184" width="17" height="3" fill="#000" opacity=".25"/><text x="530.5" y="182.96" font-size="11.16" text-anchor="middle" fill="#0d1321" opacity=".55" font-family="'Courier New', Courier, monospace">♠</text>
<rect x="522.0" y="152" width="17" height="17" fill="#7b61ff"/><rect x="522.0" y="152" width="17" height="3" fill="#fff" opacity=".35"/><rect x="522.0" y="166" width="17" height="3" fill="#000" opacity=".25"/>
<rect x="522.0" y="134" width="17" height="17" fill="#f5c518"/><rect x="522.0" y="134" width="17" height="3" fill="#fff" opacity=".35"/><rect x="522.0" y="148" width="17" height="3" fill="#000" opacity=".25"/>
<rect x="540.0" y="170" width="17" height="17" fill="#f5c518"/><rect x="540.0" y="170" width="17" height="3" fill="#fff" opacity=".35"/><rect x="540.0" y="184" width="17" height="3" fill="#000" opacity=".25"/>
<rect x="540.0" y="152" width="17" height="17" fill="#36f1cd"/><rect x="540.0" y="152" width="17" height="3" fill="#fff" opacity=".35"/><rect x="540.0" y="166" width="17" height="3" fill="#000" opacity=".25"/>
<rect x="558.0" y="170" width="17" height="17" fill="#36f1cd"/><rect x="558.0" y="170" width="17" height="3" fill="#fff" opacity=".35"/><rect x="558.0" y="184" width="17" height="3" fill="#000" opacity=".25"/><text x="566.5" y="182.96" font-size="11.16" text-anchor="middle" fill="#0d1321" opacity=".55" font-family="'Courier New', Courier, monospace">♠</text>
<rect x="576.0" y="170" width="17" height="17" fill="#ff3ea5"/><rect x="576.0" y="170" width="17" height="3" fill="#fff" opacity=".35"/><rect x="576.0" y="184" width="17" height="3" fill="#000" opacity=".25"/>
<rect x="576.0" y="152" width="17" height="17" fill="#f5c518"/><rect x="576.0" y="152" width="17" height="3" fill="#fff" opacity=".35"/><rect x="576.0" y="166" width="17" height="3" fill="#000" opacity=".25"/>
<rect x="594.0" y="170" width="17" height="17" fill="#ff3ea5"/><rect x="594.0" y="170" width="17" height="3" fill="#fff" opacity=".35"/><rect x="594.0" y="184" width="17" height="3" fill="#000" opacity=".25"/>
<rect x="594.0" y="152" width="17" height="17" fill="#d62839"/><rect x="594.0" y="152" width="17" height="3" fill="#fff" opacity=".35"/><rect x="594.0" y="166" width="17" height="3" fill="#000" opacity=".25"/>
<rect x="612.0" y="170" width="17" height="17" fill="#f5c518"/><rect x="612.0" y="170" width="17" height="3" fill="#fff" opacity=".35"/><rect x="612.0" y="184" width="17" height="3" fill="#000" opacity=".25"/>
<rect x="612.0" y="152" width="17" height="17" fill="#d62839"/><rect x="612.0" y="152" width="17" height="3" fill="#fff" opacity=".35"/><rect x="612.0" y="166" width="17" height="3" fill="#000" opacity=".25"/>
<rect x="612.0" y="134" width="17" height="17" fill="#7b61ff"/><rect x="612.0" y="134" width="17" height="3" fill="#fff" opacity=".35"/><rect x="612.0" y="148" width="17" height="3" fill="#000" opacity=".25"/>
<rect x="630.0" y="170" width="17" height="17" fill="#7b61ff"/><rect x="630.0" y="170" width="17" height="3" fill="#fff" opacity=".35"/><rect x="630.0" y="184" width="17" height="3" fill="#000" opacity=".25"/>
<rect x="630.0" y="152" width="17" height="17" fill="#ff8c42"/><rect x="630.0" y="152" width="17" height="3" fill="#fff" opacity=".35"/><rect x="630.0" y="166" width="17" height="3" fill="#000" opacity=".25"/>
<rect x="648.0" y="170" width="17" height="17" fill="#36f1cd"/><rect x="648.0" y="170" width="17" height="3" fill="#fff" opacity=".35"/><rect x="648.0" y="184" width="17" height="3" fill="#000" opacity=".25"/>
<rect x="666.0" y="170" width="17" height="17" fill="#d62839"/><rect x="666.0" y="170" width="17" height="3" fill="#fff" opacity=".35"/><rect x="666.0" y="184" width="17" height="3" fill="#000" opacity=".25"/>
<rect x="666.0" y="152" width="17" height="17" fill="#7b61ff"/><rect x="666.0" y="152" width="17" height="3" fill="#fff" opacity=".35"/><rect x="666.0" y="166" width="17" height="3" fill="#000" opacity=".25"/>
<rect x="684.0" y="170" width="17" height="17" fill="#4cc9f0"/><rect x="684.0" y="170" width="17" height="3" fill="#fff" opacity=".35"/><rect x="684.0" y="184" width="17" height="3" fill="#000" opacity=".25"/><text x="692.5" y="182.96" font-size="11.16" text-anchor="middle" fill="#0d1321" opacity=".55" font-family="'Courier New', Courier, monospace">♦</text>
<rect x="684.0" y="152" width="17" height="17" fill="#7b61ff"/><rect x="684.0" y="152" width="17" height="3" fill="#fff" opacity=".35"/><rect x="684.0" y="166" width="17" height="3" fill="#000" opacity=".25"/>
<rect x="684.0" y="134" width="17" height="17" fill="#ff8c42"/><rect x="684.0" y="134" width="17" height="3" fill="#fff" opacity=".35"/><rect x="684.0" y="148" width="17" height="3" fill="#000" opacity=".25"/>
<rect x="702.0" y="170" width="17" height="17" fill="#f5c518"/><rect x="702.0" y="170" width="17" height="3" fill="#fff" opacity=".35"/><rect x="702.0" y="184" width="17" height="3" fill="#000" opacity=".25"/><text x="710.5" y="182.96" font-size="11.16" text-anchor="middle" fill="#0d1321" opacity=".55" font-family="'Courier New', Courier, monospace">♣</text>
<rect x="702.0" y="152" width="17" height="17" fill="#ff8c42"/><rect x="702.0" y="152" width="17" height="3" fill="#fff" opacity=".35"/><rect x="702.0" y="166" width="17" height="3" fill="#000" opacity=".25"/>
<rect x="810.0" y="170" width="17" height="17" fill="#7b61ff"/><rect x="810.0" y="170" width="17" height="3" fill="#fff" opacity=".35"/><rect x="810.0" y="184" width="17" height="3" fill="#000" opacity=".25"/>
<rect x="810.0" y="152" width="17" height="17" fill="#4cc9f0"/><rect x="810.0" y="152" width="17" height="3" fill="#fff" opacity=".35"/><rect x="810.0" y="166" width="17" height="3" fill="#000" opacity=".25"/><text x="818.5" y="164.96" font-size="11.16" text-anchor="middle" fill="#0d1321" opacity=".55" font-family="'Courier New', Courier, monospace">♦</text>
<rect x="828.0" y="170" width="17" height="17" fill="#7b61ff"/><rect x="828.0" y="170" width="17" height="3" fill="#fff" opacity=".35"/><rect x="828.0" y="184" width="17" height="3" fill="#000" opacity=".25"/>
<rect x="846.0" y="170" width="17" height="17" fill="#f5c518"/><rect x="846.0" y="170" width="17" height="3" fill="#fff" opacity=".35"/><rect x="846.0" y="184" width="17" height="3" fill="#000" opacity=".25"/>
<rect x="846.0" y="152" width="17" height="17" fill="#f5c518"/><rect x="846.0" y="152" width="17" height="3" fill="#fff" opacity=".35"/><rect x="846.0" y="166" width="17" height="3" fill="#000" opacity=".25"/>
<rect x="864.0" y="170" width="17" height="17" fill="#36f1cd"/><rect x="864.0" y="170" width="17" height="3" fill="#fff" opacity=".35"/><rect x="864.0" y="184" width="17" height="3" fill="#000" opacity=".25"/>
<rect x="864.0" y="152" width="17" height="17" fill="#4cc9f0"/><rect x="864.0" y="152" width="17" height="3" fill="#fff" opacity=".35"/><rect x="864.0" y="166" width="17" height="3" fill="#000" opacity=".25"/><text x="872.5" y="164.96" font-size="11.16" text-anchor="middle" fill="#0d1321" opacity=".55" font-family="'Courier New', Courier, monospace">♦</text>
<rect x="864.0" y="134" width="17" height="17" fill="#f5c518"/><rect x="864.0" y="134" width="17" height="3" fill="#fff" opacity=".35"/><rect x="864.0" y="148" width="17" height="3" fill="#000" opacity=".25"/>
<ellipse cx="115" cy="182" rx="16" ry="5.5" fill="#000" opacity=".25"/><ellipse cx="115" cy="180" rx="16" ry="5.5" fill="#d62839" stroke="#00000055"/><ellipse cx="115" cy="177" rx="16" ry="5.5" fill="#000" opacity=".25"/><ellipse cx="115" cy="175" rx="16" ry="5.5" fill="#d62839" stroke="#00000055"/><ellipse cx="115" cy="172" rx="16" ry="5.5" fill="#000" opacity=".25"/><ellipse cx="115" cy="170" rx="16" ry="5.5" fill="#d62839" stroke="#00000055"/><ellipse cx="115" cy="167" rx="16" ry="5.5" fill="#000" opacity=".25"/><ellipse cx="115" cy="165" rx="16" ry="5.5" fill="#d62839" stroke="#00000055"/><ellipse cx="115" cy="162" rx="16" ry="5.5" fill="#000" opacity=".25"/><ellipse cx="115" cy="160" rx="16" ry="5.5" fill="#d62839" stroke="#00000055"/><ellipse cx="115" cy="160" rx="11" ry="3.6" fill="none" stroke="#fff" stroke-width="2" stroke-dasharray="3 3"/>
<ellipse cx="148" cy="182" rx="16" ry="5.5" fill="#000" opacity=".25"/><ellipse cx="148" cy="180" rx="16" ry="5.5" fill="#f5c518" stroke="#00000055"/><ellipse cx="148" cy="177" rx="16" ry="5.5" fill="#000" opacity=".25"/><ellipse cx="148" cy="175" rx="16" ry="5.5" fill="#f5c518" stroke="#00000055"/><ellipse cx="148" cy="172" rx="16" ry="5.5" fill="#000" opacity=".25"/><ellipse cx="148" cy="170" rx="16" ry="5.5" fill="#f5c518" stroke="#00000055"/><ellipse cx="148" cy="170" rx="11" ry="3.6" fill="none" stroke="#fff" stroke-width="2" stroke-dasharray="3 3"/>
<ellipse cx="745" cy="182" rx="16" ry="5.5" fill="#000" opacity=".25"/><ellipse cx="745" cy="180" rx="16" ry="5.5" fill="#1f6feb" stroke="#00000055"/><ellipse cx="745" cy="177" rx="16" ry="5.5" fill="#000" opacity=".25"/><ellipse cx="745" cy="175" rx="16" ry="5.5" fill="#1f6feb" stroke="#00000055"/><ellipse cx="745" cy="172" rx="16" ry="5.5" fill="#000" opacity=".25"/><ellipse cx="745" cy="170" rx="16" ry="5.5" fill="#1f6feb" stroke="#00000055"/><ellipse cx="745" cy="167" rx="16" ry="5.5" fill="#000" opacity=".25"/><ellipse cx="745" cy="165" rx="16" ry="5.5" fill="#1f6feb" stroke="#00000055"/><ellipse cx="745" cy="165" rx="11" ry="3.6" fill="none" stroke="#fff" stroke-width="2" stroke-dasharray="3 3"/>
<ellipse cx="778" cy="182" rx="16" ry="5.5" fill="#000" opacity=".25"/><ellipse cx="778" cy="180" rx="16" ry="5.5" fill="#1a1a1a" stroke="#00000055"/><ellipse cx="778" cy="177" rx="16" ry="5.5" fill="#000" opacity=".25"/><ellipse cx="778" cy="175" rx="16" ry="5.5" fill="#1a1a1a" stroke="#00000055"/><ellipse cx="778" cy="172" rx="16" ry="5.5" fill="#000" opacity=".25"/><ellipse cx="778" cy="170" rx="16" ry="5.5" fill="#1a1a1a" stroke="#00000055"/><ellipse cx="778" cy="167" rx="16" ry="5.5" fill="#000" opacity=".25"/><ellipse cx="778" cy="165" rx="16" ry="5.5" fill="#1a1a1a" stroke="#00000055"/><ellipse cx="778" cy="162" rx="16" ry="5.5" fill="#000" opacity=".25"/><ellipse cx="778" cy="160" rx="16" ry="5.5" fill="#1a1a1a" stroke="#00000055"/><ellipse cx="778" cy="157" rx="16" ry="5.5" fill="#000" opacity=".25"/><ellipse cx="778" cy="155" rx="16" ry="5.5" fill="#1a1a1a" stroke="#00000055"/><ellipse cx="778" cy="155" rx="11" ry="3.6" fill="none" stroke="#fff" stroke-width="2" stroke-dasharray="3 3"/>
<rect width="900" height="200" rx="14" fill="url(#scan)"/>
<rect x="3" y="3" width="894" height="194" rx="12" fill="none" stroke="#7b61ff" stroke-width="3"/>
</svg>